<?xml version="1.0" standalone="no"?>
<!DOCTYPE svg PUBLIC "-//W3C//DTD SVG 20010904//EN"
 "http://www.w3.org/TR/2001/REC-SVG-20010904/DTD/svg10.dtd">
<svg version="1.0" xmlns="http://www.w3.org/2000/svg"
 width="758.000000pt" height="432.000000pt" viewBox="0 0 758.000000 432.000000"
 preserveAspectRatio="xMidYMid meet">
<metadata>
Created by potrace 1.16, written by Peter Selinger 2001-2019
</metadata>
<g transform="translate(0.000000,432.000000) scale(0.100000,-0.100000)"
fill="#000000" stroke="none">
<path d="M0 2160 l0 -2160 3790 0 3790 0 0 2160 0 2160 -3790 0 -3790 0 0
-2160z m838 845 c84 -121 221 -318 304 -437 83 -120 154 -218 157 -218 7 0 51
55 51 64 0 9 222 321 238 333 8 7 23 29 32 50 9 21 32 53 50 71 19 17 35 38
36 45 2 18 66 107 76 107 8 0 12 -57 8 -112 -1 -22 2 -27 14 -22 9 3 16 15 16
25 0 10 7 19 15 19 18 0 65 43 65 60 0 18 -28 11 -35 -10 -4 -13 -15 -20 -31
-20 -21 0 -24 4 -24 40 0 43 13 50 52 29 17 -9 19 -8 16 8 -2 13 -12 18 -36
18 -17 0 -32 4 -32 8 0 16 61 97 80 107 11 6 17 16 14 24 -12 31 21 37 197 34
156 -3 174 -5 177 -20 3 -14 -3 -18 -22 -18 -14 0 -26 -4 -26 -10 0 -5 11 -10
25 -10 l25 0 -2 -197 -3 -198 -89 0 c-65 0 -90 -4 -94 -13 -3 -10 9 -13 49
-12 30 1 73 1 97 1 l42 -1 0 -340 0 -340 -264 0 -264 0 -39 -49 c-21 -27 -85
-112 -143 -190 l-104 -141 -162 0 -162 0 -91 123 c-50 67 -113 151 -139 187
l-47 64 -3 -327 -2 -327 -275 0 -275 0 0 903 c0 497 3 907 7 911 4 3 88 5 187
4 l180 -3 154 -220z m2987 -629 c32 -32 40 -69 25 -107 -18 -43 -47 -59 -108
-59 -46 0 -58 4 -83 29 -21 22 -29 39 -29 66 0 27 8 44 29 66 26 25 37 29 86
29 46 0 60 -4 80 -24z m2145 -170 c5 -125 5 -128 23 -108 10 11 42 30 70 42
123 53 275 -22 322 -159 20 -58 20 -195 0 -252 -24 -66 -63 -117 -114 -147
-40 -23 -57 -27 -128 -27 -76 0 -85 2 -127 32 l-46 33 0 -30 0 -30 -95 0 -95
0 0 390 0 391 93 -3 92 -3 5 -129z m708 -258 l2 -388 -100 0 -100 0 0 383 c0
211 3 387 7 391 4 4 48 5 98 4 l90 -3 3 -387z m-3666 142 c44 -113 84 -220 90
-237 6 -18 14 -33 17 -33 6 0 25 49 134 335 l53 140 115 0 114 0 3 -368 2
-368 -97 3 -98 3 -5 188 -5 189 -54 -159 c-29 -87 -59 -173 -67 -190 l-13 -33
-84 0 -84 0 -71 203 -71 202 0 -202 -1 -203 -95 0 -95 0 0 370 0 371 116 -3
116 -3 80 -205z m1858 130 l0 -69 58 -3 57 -3 3 -77 3 -78 -61 0 -60 0 0 -117
c0 -65 4 -124 9 -132 5 -7 32 -16 60 -19 l51 -5 0 -78 0 -79 -82 0 c-59 0 -95
6 -123 19 -87 40 -105 86 -105 271 l0 140 -40 0 -41 0 3 78 3 77 38 3 37 3 0
70 0 69 95 0 95 0 0 -70z m-431 -98 c34 -20 54 -43 76 -87 l30 -59 3 -208 4
-208 -101 0 -100 0 -3 191 -3 191 -28 24 c-20 17 -40 24 -68 24 -96 0 -109
-30 -109 -255 l0 -175 -100 0 -100 0 2 293 3 292 95 0 95 0 3 -32 3 -32 43 31
c80 56 175 60 255 10z m956 14 c28 -12 57 -31 65 -41 14 -17 15 -16 20 16 l5
34 93 3 92 3 0 -296 0 -295 -95 0 -95 0 0 30 c0 17 -3 30 -6 30 -4 0 -21 -13
-40 -29 -60 -53 -181 -54 -264 -3 -56 34 -102 109 -120 191 -51 242 149 449
345 357z m1807 -18 c100 -53 142 -129 136 -243 l-3 -60 -198 -3 -197 -2 6 -28
c9 -36 23 -53 59 -68 42 -17 79 -7 115 32 30 33 32 34 113 34 103 0 109 -4 92
-54 -34 -98 -132 -166 -249 -174 -186 -12 -312 95 -324 273 -8 134 40 236 138
289 72 39 102 46 183 41 52 -3 81 -11 129 -37z m-3364 -266 l2 -293 -95 3
c-52 2 -95 6 -95 11 0 4 0 135 0 292 l0 286 93 -3 92 -3 3 -293z"/>
<path d="M6040 1977 c-62 -31 -88 -122 -54 -193 38 -80 167 -86 202 -9 17 38
15 136 -4 163 -32 46 -96 64 -144 39z"/>
<path d="M5299 1967 c-55 -37 -71 -118 -37 -192 32 -70 143 -73 195 -5 39 50
19 160 -36 197 -43 29 -79 29 -122 0z"/>
<path d="M6990 1983 c-32 -22 -40 -33 -40 -60 0 -22 3 -23 101 -23 l101 0 -6
28 c-15 63 -100 94 -156 55z"/>
</g>
</svg>
